<?xml version="1.0" standalone="no"?>
<!DOCTYPE svg PUBLIC "-//W3C//DTD SVG 20010904//EN"
 "http://www.w3.org/TR/2001/REC-SVG-20010904/DTD/svg10.dtd">
<svg version="1.0" xmlns="http://www.w3.org/2000/svg"
 width="512.000000pt" height="512.000000pt" viewBox="0 0 512.000000 512.000000"
 preserveAspectRatio="xMidYMid meet">
<metadata>
Created by potrace 1.11, written by Peter Selinger 2001-2013
</metadata>
<g transform="translate(0.000000,512.000000) scale(0.100000,-0.100000)"
fill="#000000" stroke="none">
<path d="M265 5114 c-117 -27 -222 -127 -254 -244 -9 -34 -11 -250 -9 -885 l3
-840 27 -55 c43 -89 110 -149 203 -181 58 -20 1678 -22 1744 -2 101 30 174 94
220 193 l26 55 1 825 c1 505 -2 844 -8 875 -12 58 -57 137 -102 178 -17 16
-56 41 -86 55 l-55 27 -845 1 c-465 1 -854 0 -865 -2z"/>
<path d="M3123 5102 c-69 -25 -115 -58 -158 -113 -72 -95 -68 -40 -70 -969 -1
-638 1 -845 11 -876 38 -126 120 -207 244 -239 71 -18 1681 -15 1735 4 90 31
163 96 204 181 l26 55 0 865 0 865 -23 46 c-35 71 -84 122 -154 160 l-63 34
-850 2 c-797 3 -853 2 -902 -15z m1725 -222 c51 -34 50 -16 50 -870 0 -858 1
-841 -53 -876 -25 -16 -81 -18 -823 -18 -558 -1 -806 2 -828 10 -43 15 -60 33
-71 75 -5 19 -8 390 -8 825 1 740 2 793 19 819 36 54 15 53 886 52 695 -2 808
-4 828 -17z"/>
<path d="M250 2213 c-98 -25 -172 -86 -218 -183 l-27 -55 -2 -855 -3 -855 30
-63 c44 -94 117 -160 207 -187 72 -22 1676 -22 1748 -1 104 32 193 119 224
221 16 50 17 129 16 893 l0 837 -29 62 c-34 75 -94 134 -174 171 l-57 27 -830
1 c-680 1 -841 -1 -885 -13z m1697 -228 c17 -10 37 -29 44 -42 11 -20 13 -192
13 -832 l0 -807 -22 -31 c-12 -18 -37 -36 -55 -42 -20 -6 -319 -9 -832 -8
-690 2 -803 4 -823 17 -51 34 -50 16 -49 878 l0 803 21 32 c12 18 35 37 52 42
20 6 321 10 825 10 758 -1 795 -2 826 -20z"/>
<path d="M3149 2216 c-101 -26 -181 -95 -228 -196 l-26 -55 -1 -837 c0 -933
-3 -900 67 -992 44 -58 127 -112 192 -126 36 -7 314 -10 887 -8 l835 3 45 24
c107 56 170 135 190 236 8 43 10 295 8 885 l-3 825 -28 57 c-35 72 -92 128
-165 164 l-57 28 -835 2 c-603 1 -848 -2 -881 -10z m1698 -232 c16 -12 33 -36
39 -55 8 -24 11 -263 10 -834 -1 -783 -1 -801 -21 -827 -11 -15 -36 -32 -55
-37 -20 -5 -370 -9 -820 -9 -847 1 -831 0 -866 53 -17 26 -18 79 -18 823 -1
581 2 805 11 830 13 39 45 65 88 72 16 3 384 5 817 5 778 -1 788 -1 815 -21z"/>
</g>
</svg>
